HIERARCHY
ROOT Hips
{
	OFFSET -14.64140 90.27770 -84.91600
	CHANNELS 6 Xposition Yposition Zposition Zrotation Xrotation Yrotation
	JOINT Spine
	{
		OFFSET 0.00000 13.20850 -1.60436
		CHANNELS 3 Zrotation Xrotation Yrotation
		JOINT Spine1
		{
			OFFSET 0.00000 8.61716 0.00000
			CHANNELS 3 Zrotation Xrotation Yrotation
			JOINT Spine2
			{
				OFFSET 0.00000 8.61717 0.00000
				CHANNELS 3 Zrotation Xrotation Yrotation
				JOINT Spine3
				{
					OFFSET 0.00000 8.61717 0.00000
					CHANNELS 3 Zrotation Xrotation Yrotation
					JOINT Neck
					{
						OFFSET 0.00000 11.07920 1.10792
						CHANNELS 3 Zrotation Xrotation Yrotation
						JOINT Neck1
						{
							OFFSET 0.00000 7.08032 0.00000
							CHANNELS 3 Zrotation Xrotation Yrotation
							JOINT Head
							{
								OFFSET 0.00000 7.08031 0.00000
								CHANNELS 3 Zrotation Xrotation Yrotation
								End site
								{
									OFFSET 0.00000 0.00000 0.00000
								}
							}
						}
					}
					JOINT RightShoulder
					{
						OFFSET -0.01000 7.91373 5.19711
						CHANNELS 3 Zrotation Xrotation Yrotation
						JOINT RightArm
						{
							OFFSET -18.41580 0.00000 0.00000
							CHANNELS 3 Zrotation Xrotation Yrotation
							JOINT RightForeArm
							{
								OFFSET -29.11090 0.00000 0.00000
								CHANNELS 3 Zrotation Xrotation Yrotation
								JOINT RightHand
								{
									OFFSET -24.65040 0.00000 0.00000
									CHANNELS 3 Zrotation Xrotation Yrotation
									JOINT RightHandThumb1
									{
										OFFSET -5.35114 -0.85590 3.97906
										CHANNELS 3 Zrotation Xrotation Yrotation
										JOINT RightHandThumb2
										{
											OFFSET -4.52789 0.00000 0.00000
											CHANNELS 3 Zrotation Xrotation Yrotation
											JOINT RightHandThumb3
											{
												OFFSET -2.46976 0.00000 0.00000
												CHANNELS 3 Zrotation Xrotation Yrotation
												End site
												{
													OFFSET 0.00000 0.00000 0.00000
												}
											}
										}
									}
									JOINT RightHandIndex1
									{
										OFFSET -14.26970 0.00000 2.88139
										CHANNELS 3 Zrotation Xrotation Yrotation
										JOINT RightHandIndex2
										{
											OFFSET -5.48836 0.00000 0.00000
											CHANNELS 3 Zrotation Xrotation Yrotation
											JOINT RightHandIndex3
											{
												OFFSET -3.01859 0.00000 0.00000
												CHANNELS 3 Zrotation Xrotation Yrotation
												End site
												{
													OFFSET 0.00000 0.00000 0.00000
												}
											}
										}
									}
									JOINT RightHandMiddle1
									{
										OFFSET -14.26970 0.00000 -0.09147
										CHANNELS 3 Zrotation Xrotation Yrotation
										JOINT RightHandMiddle2
										{
											OFFSET -6.17441 0.00000 0.00000
											CHANNELS 3 Zrotation Xrotation Yrotation
											JOINT RightHandMiddle3
											{
												OFFSET -3.56743 0.00000 0.00000
												CHANNELS 3 Zrotation Xrotation Yrotation
												End site
												{
													OFFSET 0.00000 0.00000 0.00000
												}
											}
										}
									}
									JOINT RightHandRing1
									{
										OFFSET -12.69180 0.00000 -3.06433
										CHANNELS 3 Zrotation Xrotation Yrotation
										JOINT RightHandRing2
										{
											OFFSET -5.62556 0.00000 0.00000
											CHANNELS 3 Zrotation Xrotation Yrotation
											JOINT RightHandRing3
											{
												OFFSET -3.56744 0.00000 0.00000
												CHANNELS 3 Zrotation Xrotation Yrotation
												End site
												{
													OFFSET 0.00000 0.00000 0.00000
												}
											}
										}
									}
									JOINT RightHandPinky1
									{
										OFFSET -11.11390 0.00000 -6.03719
										CHANNELS 3 Zrotation Xrotation Yrotation
										JOINT RightHandPinky2
										{
											OFFSET -4.52789 0.00000 0.00000
											CHANNELS 3 Zrotation Xrotation Yrotation
											JOINT RightHandPinky3
											{
												OFFSET -2.46976 0.00000 0.00000
												CHANNELS 3 Zrotation Xrotation Yrotation
												End site
												{
													OFFSET 0.00000 0.00000 0.00000
												}
											}
										}
									}
								}
							}
						}
					}
					JOINT LeftShoulder
					{
						OFFSET 0.01000 7.91373 5.19711
						CHANNELS 3 Zrotation Xrotation Yrotation
						JOINT LeftArm
						{
							OFFSET 18.41580 0.00000 0.00000
							CHANNELS 3 Zrotation Xrotation Yrotation
							JOINT LeftForeArm
							{
								OFFSET 29.11090 0.00000 0.00000
								CHANNELS 3 Zrotation Xrotation Yrotation
								JOINT LeftHand
								{
									OFFSET 24.65040 0.00000 0.00000
									CHANNELS 3 Zrotation Xrotation Yrotation
									JOINT LeftHandThumb1
									{
										OFFSET 5.35114 -0.85590 3.97906
										CHANNELS 3 Zrotation Xrotation Yrotation
										JOINT LeftHandThumb2
										{
											OFFSET 4.52789 0.00000 0.00000
											CHANNELS 3 Zrotation Xrotation Yrotation
											JOINT LeftHandThumb3
											{
												OFFSET 2.46977 0.00000 0.00000
												CHANNELS 3 Zrotation Xrotation Yrotation
												End site
												{
													OFFSET 0.00000 0.00000 0.00000
												}
											}
										}
									}
									JOINT LeftHandIndex1
									{
										OFFSET 14.26970 0.00000 2.88139
										CHANNELS 3 Zrotation Xrotation Yrotation
										JOINT LeftHandIndex2
										{
											OFFSET 5.48836 0.00000 0.00000
											CHANNELS 3 Zrotation Xrotation Yrotation
											JOINT LeftHandIndex3
											{
												OFFSET 3.01859 0.00000 0.00000
												CHANNELS 3 Zrotation Xrotation Yrotation
												End site
												{
													OFFSET 0.00000 0.00000 0.00000
												}
											}
										}
									}
									JOINT LeftHandMiddle1
									{
										OFFSET 14.26970 0.00000 -0.09147
										CHANNELS 3 Zrotation Xrotation Yrotation
										JOINT LeftHandMiddle2
										{
											OFFSET 6.17440 0.00000 0.00000
											CHANNELS 3 Zrotation Xrotation Yrotation
											JOINT LeftHandMiddle3
											{
												OFFSET 3.56744 0.00000 0.00000
												CHANNELS 3 Zrotation Xrotation Yrotation
												End site
												{
													OFFSET 0.00000 0.00000 0.00000
												}
											}
										}
									}
									JOINT LeftHandRing1
									{
										OFFSET 12.69180 0.00000 -3.06433
										CHANNELS 3 Zrotation Xrotation Yrotation
										JOINT LeftHandRing2
										{
											OFFSET 5.62556 0.00000 0.00000
											CHANNELS 3 Zrotation Xrotation Yrotation
											JOINT LeftHandRing3
											{
												OFFSET 3.56744 0.00000 0.00000
												CHANNELS 3 Zrotation Xrotation Yrotation
												End site
												{
													OFFSET 0.00000 0.00000 0.00000
												}
											}
										}
									}
									JOINT LeftHandPinky1
									{
										OFFSET 11.11390 0.00000 -6.03719
										CHANNELS 3 Zrotation Xrotation Yrotation
										JOINT LeftHandPinky2
										{
											OFFSET 4.52789 0.00000 0.00000
											CHANNELS 3 Zrotation Xrotation Yrotation
											JOINT LeftHandPinky3
											{
												OFFSET 2.46976 0.00000 0.00000
												CHANNELS 3 Zrotation Xrotation Yrotation
												End site
												{
													OFFSET 0.00000 0.00000 0.00000
												}
											}
										}
									}
								}
							}
						}
					}
					JOINT pCube4
					{
						OFFSET 0.00000 10.91090 1.10792
						CHANNELS 3 Zrotation Xrotation Yrotation
						End site
						{
							OFFSET 0.00000 0.00000 0.00000
						}
					}
				}
			}
		}
	}
	JOINT RightUpLeg
	{
		OFFSET -9.98441 0.00000 0.00000
		CHANNELS 3 Zrotation Xrotation Yrotation
		JOINT RightLeg
		{
			OFFSET 0.00000 -42.11790 0.00000
			CHANNELS 3 Zrotation Xrotation Yrotation
			JOINT RightFoot
			{
				OFFSET 0.00000 -45.00020 -0.00001
				CHANNELS 3 Zrotation Xrotation Yrotation
				JOINT RightForeFoot
				{
					OFFSET 0.00000 -3.74820 0.00000
					CHANNELS 3 Zrotation Xrotation Yrotation
					JOINT RightToeBase
					{
						OFFSET 0.00000 0.06325 14.43120
						CHANNELS 3 Zrotation Xrotation Yrotation
						End site
						{
							OFFSET 0.00000 0.00000 0.00000
						}
					}
				}
			}
		}
	}
	JOINT LeftUpLeg
	{
		OFFSET 9.98441 0.00000 0.00000
		CHANNELS 3 Zrotation Xrotation Yrotation
		JOINT LeftLeg
		{
			OFFSET 0.00000 -42.11800 0.00000
			CHANNELS 3 Zrotation Xrotation Yrotation
			JOINT LeftFoot
			{
				OFFSET 0.00000 -45.00070 0.00000
				CHANNELS 3 Zrotation Xrotation Yrotation
				JOINT LeftForeFoot
				{
					OFFSET 0.00000 -3.74824 0.00000
					CHANNELS 3 Zrotation Xrotation Yrotation
					JOINT LeftToeBase
					{
						OFFSET 0.00000 0.06325 14.43110
						CHANNELS 3 Zrotation Xrotation Yrotation
						End site
						{
							OFFSET 0.00000 0.00000 0.00000
						}
					}
				}
			}
		}
	}
}
MOTION
Frames: 4
Frame Time: 0.050000
-0.03500828431913633 0.021207626830027124 -0.01351931636419973 0.0461060835893124 0.031694460729440155 -0.01735487198237577 -2.0352194434481903 2.8469642455039637 -0.9028331752220817 -0.961752127489123 3.838272648514983 0.38596353636819414 -1.0244726808906544 -1.451316867044043 -1.347021127576909 -0.4133592142012755 0.4108224076159497 -0.8633259285177435 -1.0984038204613475 11.673293768995068 2.4961916616509505 -0.08933423999564347 -2.0463839601014526 4.828625388559986 -0.49944379242240566 -18.692078963654428 0.35012333266587964 -3.391828346486792 1.441959257922436 -14.409399429294478 73.36158876711218 21.685682442509975 0.3957881229382324 5.127815176318395 5.8831759550817875 53.17109659237867 20.388131558550143 -0.09572784156624832 -4.3714243724169215 4.56139996215249 -0.09707757640108622 -1.5724366028977972 0.04489797888598895 -0.04099104900781681 -56.22435769387514 0.04647166893100261 -0.007110331667095119 -56.19068472182641 -38.77951445295485 0.014544781751248846 -0.030903666241770277 0.04477464760546397 -0.026065352584785328 0.049704323837775545 -0.04403702474978203 -0.011034300548869605 0.007777202003519029 -36.71863720419782 0.02079341817457395 -0.03403410646985329 -0.03081282189439669 0.02686291367448594 -0.006384340147263826 -0.010359596498005297 0.04694749878383985 0.017660234123134135 -19.74404010124781 -0.0019955032547974805 -0.019203312739648162 0.04059756515205647 -0.01593641307716168 0.03830129498748819 0.0045667300962335755 0.024605096302082005 0.008807160975081201 24.042405286218724 -0.0373200905679468 0.04962064669943399 28.866361985905968 0.014504557152229501 0.021780362816652694 28.823993885344905 -0.03299523367363213 0.014298856562776394 6.665876572954649 1.572803985738226 12.71271382523001 -73.12033943004731 26.100262228481395 -10.927196702139387 -40.54965204752118 2.587262403546537 -78.61665585930666 -11.989320522735373 -1.7745132450541905 1.7548495210050499 -0.4958988169541216 0.06389815985840647 -8.097899750787555 0.04500860182109514 -0.02570979550946526 44.58424469727252 0.032274391580951904 0.0013808946226416588 44.61474725750345 12.421220044957293 -0.039105323919893464 0.0015272940736290048 0.017643291782481606 -0.01674663627449064 -0.018555170156119183 -0.01936638870741084 0.04884854813150791 0.038806601416656546 11.071080577084372 0.018324978150944523 0.0048988085596911235 -0.03994364413790544 -0.02328533038982859 -0.01339885874110412 -0.010174025912332473 -0.042074784800796065 -0.009756456929321677 4.757525625134655 -0.03962627593215587 0.004553356313238477 0.04515256994564339 0.018766949172419355 0.02933264143877312 -0.008780551516125192 0.00966604705893178 0.044914612169861 -5.624991489051261 -0.020584202177946275 0.03511597687210548 -6.744324026824615 -0.0312576807548534 -0.03691349603545472 -6.717881303072585 -0.028136833620338347 0.01294833513067825 -0.024282402053309667 0.04135961377207139 0.04292848277600332 8.064668500589024 3.523148696309492 -19.26327326435147 0.010967650839393621 10.371726619763475 -0.0009211919295577103 -5.584551912539715 -15.673223478032059 3.1798706335652054 -0.006438140355643732 0.0007834993365790444 -0.034350450826556855 0.014904337498747866 4.678760183087698 0.014263552167793184 12.427323148378905 -8.194038162686638 6.882655434995905 -0.01482177559286464 46.39821549983496 0.014786042012925436 -4.352957479377976 -14.764236580632424 -3.8750563297644693 0.0322496775578797 -0.007678876149903611 0.04237501227279004 -0.0028634490581162853 -10.76842231030921 0.02050899768936388 
0.02214414943406426 -0.04485472710590966 -0.0015018182809292007 -0.035111834245774624 0.032530981715960125 -0.017806394075839418 -2.2217493006589604 2.6489616934515254 -0.878581075803134 -0.9343951921733605 3.833278946373238 0.3445265847091233 -0.9650759070050847 -1.497984303332728 -1.3945750089003803 -0.5000377320927595 0.42739258836315613 -0.8472675266902783 -1.2080615493419538 11.672854754542145 2.7347279370640454 -0.016956802801916665 -1.9556966107030926 5.370375427606003 -0.5344252001374076 -18.449193916978906 0.42452734026505884 -3.1475823238811036 1.3429711931887491 -14.404326868405182 73.45410886680376 22.3625791663842 -0.2809274292864229 6.462467918715365 6.634258943586524 52.39904726760595 21.224979469137967 -0.06288721180630934 -4.5402813137741616 4.501612251913475 -0.10243034580726829 -1.6071423892288554 0.020654333359394796 -0.0012899171726960931 -56.19699102624727 0.015706129432558117 0.03546725494731424 -56.245157304895365 -38.73816891093672 -0.03938523365928527 0.01407476082151038 0.01105738923202767 0.039794534672905016 0.021661248018022647 0.023838022904022302 -0.033104089262495806 0.04730255635462914 -36.67041185691888 0.03394914318789892 -0.005800181836298055 0.005125841224023141 0.021925640164233293 0.014688936266883206 0.0263457356753188 -0.009449941863939517 -0.041288830941613994 -19.78400522457627 0.025172442898627797 -0.03738682127208819 0.02663690509857503 0.03383568379512621 0.013223688218137545 0.01863543304120566 0.0378335163462095 -0.013795039998246173 24.031106016966813 0.00687783581105715 0.037754265954239925 28.84001874595234 0.017862821751558983 -0.014661846407321355 28.835892038115468 0.0033088070031391716 0.03474515615288616 6.641256300579781 1.5090636896470424 12.72710164411875 -73.2732477212648 25.71507931265652 -10.981409694009924 -44.9630745100936 2.820113992419766 -82.32972505831101 -12.323095459926757 -2.027375133477643 1.7707401323731662 -0.4847755829420796 0.051153907224806686 -8.114538609978982 -0.020562396073066626 2.1491840064367324e-05 44.52407206618555 0.014953538666482117 0.038324346648169125 44.547677185864714 12.489612331631578 0.047624024387678134 0.03504477302853773 -0.03366708916314975 0.017809849071920573 -0.011602811477960214 -0.014706745422252013 0.013119050507055436 0.01977514771189543 11.095815158454968 0.012551524799753445 -0.03963685240977876 -0.0009602449674023184 0.028116164993865534 -0.012210069778813431 -0.00912614142409058 -0.012295437357740266 0.017785604565664692 4.770556367173287 0.04229834943776443 -0.033163065163083934 0.04327836123465899 0.03538320792563234 0.012540374926784415 -0.01757300563137137 -0.01614746592464503 -0.004067500049571731 -5.555350617077481 -0.023434118828228066 0.0005655398641489838 -6.681769855771541 -0.0008167446792554623 -0.015869959765687263 -6.724755169997029 -0.009671705638773443 0.03633945052266074 -0.015315222942831675 -0.040286038636408 0.04168290636205864 7.999129556594428 3.5300905300258467 -19.237392264704784 -0.010374282422192495 10.346026222972867 -0.013493220340317746 -5.612218858561485 -15.614163021897259 3.1766190792587286 0.019841640582824092 -0.002259924054270391 0.006226968465760787 -0.03447392713976175 4.6585494739503845 0.02706580600283618 12.420878727711553 -8.2425629873286 6.891023725431755 0.036149245815655276 46.368344889643105 0.02274922496612053 -4.368581471937477 -14.711605079180794 -3.876227839045368 -0.009421017963124391 -0.04709605870399901 -0.0219642873515855 0.0066782638953178895 -10.702966103023822 -0.006816227166095996 
0.002918244119481341 -0.02616459009558128 0.04330304938887437 -0.03749280691298625 -0.02877661817832073 -0.04480315388357759 -2.350041977319983 2.5260989272130185 -0.858127525136779 -0.9251973327833268 3.820223970360835 0.33328075913640676 -0.9866037271018525 -1.4923240327641094 -1.4851241898466967 -0.4594775749942882 0.4152033514561041 -0.8082759636920664 -1.27490933645478 11.620962293565736 2.8939485465513197 -0.013900271297187511 -1.7798617389470384 5.838104551671557 -0.6265611866485604 -18.080495578354768 0.45388590293270087 -2.8846966573631234 1.2706712962035218 -14.321111919107429 73.28605526094161 22.129051541133343 -0.7069333886312086 7.381524583341339 7.057886989552879 51.83905147048176 22.146056268924166 -0.05120302600661415 -4.599114892930743 4.576222778749357 -0.14190415961137567 -1.5449297606163106 0.021699683494238738 0.03217318844849556 -56.203056238654824 -0.041720304419676765 -0.03613206204458077 -56.25505998530772 -38.805877123884166 0.003184413526706323 0.0036009795164677907 -0.04503626057162997 0.0048166306108452595 0.0063100530576847245 0.01000155875129701 0.005797683355966256 -0.03832865577281701 -36.70151390443937 -0.04748727527726476 0.02314867611237854 0.029340601812036664 0.0011050655507931534 -0.018453447060382558 0.04396050471786752 -0.005704102809952355 0.006145205870139748 -19.72961036614222 -0.02213963711940256 -0.036390181447951836 0.010674457580054784 -0.020330455105864318 0.0017703302313357224 -0.03907370461029643 -0.022175047562937564 0.0138492173602662 24.09655874715516 0.024980446901510765 -0.00594429841371006 28.847332655020455 0.0264130007791101 -0.030067562787997187 28.8948929710105 0.007743621710302849 -0.011552007232816217 6.549072340590778 1.5217166129552488 12.606114630470591 -72.94906189637383 25.321861881341263 -11.04333501587393 -48.574533510105454 2.811992363205563 -85.2201943883703 -12.55959665037625 -2.0499513114102643 1.5438998164959656 -0.46810674753594234 0.10756875465569402 -8.107664500901747 0.04108348597579698 0.04206869805714201 44.58880332049658 0.020226104089366915 0.012342595723898703 44.544102333973214 12.45026417303078 0.00492831396339997 -0.01775788263047286 0.01849900078926796 -0.02005920140090724 -0.0203130472863946 -0.02997247747579724 0.022668823849855742 -0.024193953683155377 11.115692975151937 0.01274101603413992 -0.028437775812370496 0.03260666126320475 -0.013998750819034667 -0.026495992868848354 0.010052210050211242 0.005384654444142021 -0.04773366036735985 4.776652850260558 -0.008635621995907936 -0.01875905710934763 -0.017494593598594472 -0.006736544241878775 -0.016628734812851154 -0.020052117108690343 -0.03097627006628716 -0.01037230141742758 -5.643125763125565 0.03381818501746551 -0.03702903540359218 -6.708657354692158 -0.010203712684835005 0.013848439969007958 -6.692473470821403 -0.03926893019097048 -0.008324423417338064 0.023159503154404397 -0.03547755793550001 0.011745184255086544 8.040366655007048 3.51395691000995 -19.227639981350283 0.011590683428555331 10.407023666503465 -0.013453941939806032 -5.63905486904242 -15.63792556008657 3.184201913065972 0.0360739745776189 -0.007942507874697614 0.016623800381748006 0.024756890664713916 4.677747544292429 0.01625852607520157 12.4896713032043 -8.269750771067441 6.91080633367071 0.038124469454799075 46.33075791488483 0.04790451057426801 -4.356887760051726 -14.701669837293545 -3.8497203566003035 0.029308980890094684 0.006340725008087371 -0.01784785338673897 0.01496109426451132 -10.75024937738332 -0.032930606124460894 
0.01290734658504391 0.008638584298592248 -0.026631397717441566 -0.01532622156248577 -0.0031055395416595697 -0.04781957616393159 -2.534897698040667 2.4310535062702074 -0.7637280859978861 -0.932255483125855 3.75875864980171 0.3470414578962991 -1.0499855270125658 -1.5264587693035654 -1.5922720179812782 -0.5265163333328707 0.4491548425916079 -0.875962099746756 -1.2297738925011876 11.619837762259964 3.0516885648073027 0.04056299530165075 -1.6472480559103142 6.105359960503376 -0.6105240080740749 -17.860992141801358 0.5309582651310991 -2.7012395980624198 1.3164677428205205 -14.251574869864653 73.1053898425339 21.986309308649457 -1.0294983556269621 7.7585100952473836 7.165532083268173 51.379504581480944 22.891137888586353 -0.021726582042830775 -4.596896086161811 4.47971167434338 -0.12304639339503656 -1.6168529128123685 -0.02079234592133486 -0.024169721307297762 -56.20416061117921 0.037810156753286604 0.009816375144743185 -56.23188106410423 -38.75159581773828 0.00010882050435301204 -0.03499372720180632 0.006834888050161433 -0.03195798065512996 0.03141607106806472 0.03858140291949763 0.02254845671803832 -0.007488029510723636 -36.67692940099777 0.028609211132172352 -0.037852033670233605 -0.04248678157772391 -0.029535563888195986 -0.03335755263893063 -0.03922948477594491 -0.02404551307949589 -0.02661338989445508 -19.745063305723196 0.04405170100230153 -0.014154805143182143 0.00954294168678648 0.020104724696220842 0.021008687740390785 0.02724173957396873 0.019734070891399245 -0.017709737292164844 24.040682616686198 -0.014289078109211985 0.030318293102950637 28.883218326837838 -0.007236630308597241 -0.042723479116374564 28.871298252735823 -0.00497803988880916 0.032482331000504835 6.458539014715585 1.479831302280605 12.598734221886112 -72.6545867312037 25.139436665202343 -11.034127760061681 -50.35335405946568 2.5036458773504258 -86.55772609262742 -12.479845044298225 -2.030111485950466 1.3786843409413623 -0.4557346780645256 0.11281235128933109 -8.113383992855029 -0.012903026275629104 0.043236471897429324 44.5509242330948 -0.034609096844214364 -0.009345780846387325 44.53678410080903 12.443396342706858 0.01727953662752634 0.04037962035821242 0.020223356055437784 0.04812563361010171 -0.00021493321028253883 0.038962376117718335 -0.026634648857311483 -0.027924892713251142 11.102009285887673 -0.00012984222934741822 -0.011129834190278375 -0.025491894042683462 -0.033576474745005185 -0.013663358786487735 -0.005548616820434778 -0.001971470164831911 -0.045758827698265225 4.762875488570686 -0.013228768608602025 -0.00624265808742078 -0.001562562054137739 0.04678329161662742 -0.020995382689845837 0.03784654643538048 0.04514202981203565 -0.004155051501698173 -5.6338574079535375 -0.02395858169618168 -0.02088478155937691 -6.708820961335061 -0.0452106828813858 -0.035290652831316716 -6.730364806375582 0.03964615106407888 0.023613015919726126 -0.02004190005477411 0.04337879052754571 0.049127115886347286 8.076190898971902 3.523379443520158 -19.195150304886685 -0.003938022337039895 10.425741063328434 -0.016155290891431733 -5.58749793859137 -15.688881433583768 3.16600132672388 -0.02227774717018493 -0.03073873128501414 -0.03798746060423392 -0.01569469692083948 4.7179919632066785 0.031274653444762 12.494806914044426 -8.224206105627403 6.896329634146211 0.041938848836736944 46.42313103383172 0.017186943158662517 -4.374939842572752 -14.781705169066798 -3.86889397748199 -0.046201733678928186 -0.03353808871607836 0.0025975376939481533 -0.03230887438002673 -10.713113938426865 -0.03516448103475901 
